<svg width="139.000000" height="60.000000" viewBox="0 0 139 60" fill="none" xmlns="http://www.w3.org/2000/svg" xmlns:xlink="http://www.w3.org/1999/xlink">
	<desc>
			Created with Pixso.
	</desc>
	<defs/>
	<path id="Vector" d="M0.89 4.13C3.41 -2.66 14.69 7.43 19.05 13.07L21.12 15.75L23.21 13.05C27.58 7.42 38.4 -4.39 41.36 4.13L41.36 27.36L32.37 27.36L32.37 14.97L24.29 26.08C23.71 26.88 22.79 27.36 21.8 27.36L20.44 27.36C19.46 27.36 18.53 26.88 17.95 26.08L9.87 14.97L9.87 27.36L0.88 27.36L0.88 4.13L0.89 4.13Z" fill="#5E66A7" fill-opacity="1.000000" fill-rule="nonzero"/>
	<path id="Vector" d="M75.91 13.57L75.91 15.42C75.95 25.05 68.93 27.83 60.37 27.85C51.8 27.83 44.78 25.05 44.81 15.42L44.81 13.57C44.78 3.92 51.8 1.16 60.37 1.14C68.95 1.14 75.91 3.94 75.91 13.57ZM67.03 14.17C67.08 10.03 64 9.27 60.37 9.21C56.73 9.27 53.64 10.03 53.69 14.17L53.69 14.8C53.64 18.97 56.73 19.73 60.37 19.78C64 19.73 67.08 18.97 67.03 14.8L67.03 14.17Z" fill="#5E66A7" fill-opacity="1.000000" fill-rule="nonzero"/>
	<path id="Vector" d="M91.46 19.34L94.4 11.68C96.86 5.27 102.39 1.14 108.49 1.14L96.76 27.36L86.15 27.36L74.43 1.14C80.54 1.14 86.06 5.27 88.52 11.68L91.46 19.34Z" fill="#9098D9" fill-opacity="1.000000" fill-rule="nonzero"/>
	<path id="Vector" d="M125.7 1.14L138.11 27.36L127.95 27.36C126.84 24.62 124.43 22.87 121.77 22.87L118.9 22.87C116.25 22.87 113.83 24.62 112.72 27.36L102.57 27.36L114.98 1.14L125.7 1.14L125.7 1.14ZM117.16 16.47L123.51 16.47L120.35 8.73L117.16 16.47Z" fill="#5E66A7" fill-opacity="1.000000" fill-rule="nonzero"/>
	<path id="Управление" d="M8.29 51.16L14.67 39.3L11.99 39.3L7.51 47.92L3.16 39.3L0.25 39.3L6.11 50.26L5.88 50.62Q5.27 51.58 4.43 51.86Q4.08 51.98 3.69 51.98Q3.12 51.98 2.26 51.71L1.59 53.85Q2.55 54.26 3.52 54.3Q3.64 54.31 3.75 54.31Q4.32 54.31 4.85 54.17Q5.6 53.98 6.28 53.52Q7.45 52.73 8.29 51.16ZM39.03 43.23Q37.84 42.65 36.36 42.65Q35.21 42.65 34.25 43.05Q33.75 43.27 33.33 43.59Q32.95 43.87 32.65 44.25L32.65 42.78L30.15 42.78L30.15 58.07L32.78 58.07L32.78 52.63Q33.21 53.13 33.74 53.46Q34.84 54.14 36.36 54.14Q37.86 54.14 39.06 53.56Q39.18 53.5 39.3 53.43Q39.87 53.11 40.33 52.68Q40.91 52.13 41.32 51.4Q41.35 51.35 41.38 51.3Q42.06 50.02 42.06 48.39Q42.06 46.75 41.37 45.48Q41.35 45.43 41.32 45.39Q40.92 44.68 40.36 44.15Q39.89 43.7 39.3 43.37Q39.17 43.3 39.03 43.23ZM52.49 43.84Q51.17 42.65 48.69 42.65Q47.31 42.65 46.07 43.01Q44.83 43.37 43.95 44.04L44.98 45.95Q45.61 45.43 46.52 45.14Q47.19 44.92 47.87 44.86Q48.12 44.84 48.38 44.84Q49.76 44.84 50.47 45.47Q50.61 45.59 50.72 45.74Q51.17 46.33 51.17 47.27L51.17 47.44L48.28 47.44Q45.86 47.44 44.74 48.36Q44.24 48.76 43.96 49.27Q43.61 49.93 43.61 50.78Q43.61 51.4 43.82 51.94Q43.94 52.24 44.13 52.52Q44.19 52.61 44.25 52.69Q44.75 53.33 45.59 53.71Q46.53 54.14 47.79 54.14Q49.05 54.14 49.94 53.75Q50.67 53.44 51.12 52.9Q51.23 52.77 51.32 52.63L51.32 54L53.8 54L53.8 47.42Q53.8 45.25 52.71 44.07Q52.61 43.95 52.49 43.84ZM94.2 49.23Q94.24 48.72 94.24 48.45Q94.24 46.73 93.51 45.42Q93.12 44.71 92.57 44.17Q92.09 43.71 91.5 43.38Q91.35 43.3 91.2 43.23Q90.03 42.65 88.57 42.65Q87.19 42.65 86.04 43.17Q85.81 43.27 85.59 43.39Q84.92 43.77 84.39 44.29Q83.89 44.79 83.52 45.44Q83.38 45.7 83.26 45.96Q82.78 47.07 82.78 48.39Q82.78 49.75 83.29 50.88Q83.41 51.13 83.54 51.36Q83.82 51.83 84.18 52.23Q84.82 52.94 85.72 53.41Q87.13 54.14 88.97 54.14Q90.42 54.14 91.58 53.68Q92.42 53.34 93.05 52.77Q93.28 52.56 93.49 52.31L92.08 50.7Q91.65 51.14 91.13 51.42Q90.21 51.91 89.03 51.91Q87.72 51.91 86.79 51.31Q86.7 51.25 86.61 51.19Q86.19 50.88 85.91 50.48Q85.54 49.94 85.4 49.23L94.2 49.23ZM136.75 49.23Q136.79 48.72 136.79 48.45Q136.79 46.73 136.06 45.42Q135.67 44.71 135.11 44.17Q134.64 43.71 134.05 43.38Q133.9 43.3 133.75 43.23Q132.57 42.65 131.12 42.65Q129.74 42.65 128.59 43.17Q128.36 43.27 128.13 43.39Q127.46 43.77 126.94 44.29Q126.43 44.79 126.07 45.44Q125.92 45.7 125.81 45.96Q125.33 47.07 125.33 48.39Q125.33 49.75 125.84 50.88Q125.95 51.13 126.09 51.36Q126.37 51.83 126.73 52.23Q127.37 52.94 128.26 53.41Q129.67 54.14 131.52 54.14Q132.97 54.14 134.12 53.68Q134.96 53.34 135.6 52.77Q135.83 52.56 136.03 52.31L134.63 50.7Q134.19 51.14 133.67 51.42Q132.76 51.91 131.58 51.91Q130.26 51.91 129.33 51.31Q129.24 51.25 129.16 51.19Q128.74 50.88 128.46 50.48Q128.08 49.94 127.95 49.23L136.75 49.23ZM26.6 54L26.6 42.78L15.85 42.78L15.85 54L18.47 54L18.47 45.01L24 45.01L24 54L26.6 54ZM66.81 49.25Q66.3 48.49 65.18 48.16Q65.97 47.82 66.41 47.22Q66.43 47.19 66.45 47.17Q66.55 47.03 66.63 46.87Q66.9 46.35 66.9 45.68Q66.9 44.98 66.61 44.44Q66.32 43.91 65.75 43.54Q64.59 42.78 62.53 42.78L57.05 42.78L57.05 54L62.76 54Q64.99 54 66.12 53.18Q66.59 52.84 66.86 52.39Q67.26 51.74 67.26 50.85Q67.26 49.89 66.81 49.25ZM80.22 54L80.22 42.78L71.14 42.78L70.95 47.11Q70.87 48.77 70.75 49.66Q70.64 50.55 70.24 51.19Q70.06 51.47 69.81 51.63Q69.49 51.83 69.04 51.83Q68.83 51.83 68.54 51.77L68.42 53.97Q69.28 54.21 69.86 54.21Q70.68 54.21 71.27 53.84Q71.59 53.64 71.85 53.33Q72.57 52.46 72.88 50.96Q73.18 49.46 73.29 47.23L73.39 45.01L77.59 45.01L77.59 54L80.22 54ZM99.74 42.78L97.12 42.78L97.12 54L99.74 54L99.74 49.57L105.4 49.57L105.4 54L108.02 54L108.02 42.78L105.4 42.78L105.4 47.34L99.74 47.34L99.74 42.78ZM114.17 42.78L111.55 42.78L111.55 54L113.96 54L120.13 46.6L120.13 54L122.76 54L122.76 42.78L120.37 42.78L114.17 50.18L114.17 42.78ZM62.3 47.46L59.55 47.46L59.55 44.69L62.3 44.69Q63.7 44.69 64.14 45.34Q64.34 45.63 64.34 46.06Q64.34 46.51 64.13 46.82Q63.68 47.46 62.3 47.46ZM87.02 45.11Q87.7 44.76 88.57 44.76Q89.49 44.76 90.19 45.15Q90.47 45.3 90.72 45.52Q91.02 45.79 91.24 46.12Q91.64 46.7 91.75 47.48L85.38 47.48Q85.51 46.65 85.94 46.04Q86.16 45.75 86.44 45.5Q86.71 45.27 87.02 45.11ZM129.56 45.11Q130.25 44.76 131.12 44.76Q132.04 44.76 132.74 45.15Q133.02 45.3 133.26 45.52Q133.57 45.79 133.79 46.12Q134.18 46.7 134.29 47.48L127.93 47.48Q128.05 46.65 128.49 46.04Q128.7 45.75 128.99 45.5Q129.26 45.27 129.56 45.11ZM37.69 51.51Q36.98 51.89 36.07 51.89Q35.32 51.89 34.69 51.62Q34.53 51.55 34.37 51.46Q34.11 51.31 33.89 51.12Q33.47 50.76 33.18 50.24Q32.73 49.44 32.73 48.39Q32.73 47.34 33.18 46.54Q33.47 46 33.91 45.63Q34.12 45.45 34.37 45.31Q34.53 45.22 34.69 45.15Q35.32 44.88 36.07 44.88Q36.98 44.88 37.68 45.25Q38.1 45.48 38.46 45.85Q38.67 46.07 38.83 46.32Q39.39 47.17 39.39 48.39Q39.39 49.61 38.83 50.47Q38.66 50.71 38.46 50.93Q38.11 51.29 37.69 51.51ZM49.87 51.9Q49.19 52.23 48.34 52.23Q47.33 52.23 46.76 51.81Q46.49 51.61 46.35 51.34Q46.2 51.05 46.2 50.68Q46.2 50.23 46.4 49.91Q46.88 49.19 48.46 49.19L51.17 49.19L51.17 50.49Q51.01 50.92 50.72 51.26Q50.46 51.56 50.09 51.78Q49.98 51.84 49.87 51.9ZM64.53 51.39Q64.07 52.08 62.55 52.08L59.55 52.08L59.55 49.21L62.64 49.21Q63.71 49.21 64.21 49.58Q64.36 49.69 64.47 49.83Q64.72 50.16 64.72 50.68Q64.72 51.09 64.53 51.39Z" fill="#5E66A7" fill-opacity="1.000000" fill-rule="evenodd"/>
</svg>
